o 
v 48.6150016784668 12.110000610351562 -19.99999999999998
v 48.6150016784668 0 -19.99999999999998
v -24.255001068115234 0 -19.999999999999996
v 0.034999847412109375 85.05000305175781 -19.99999999999999
v 24.324996948242188 85.05000305175781 -19.999999999999986
v 24.324996948242188 12.110000610351562 -19.999999999999986
v -12.145000457763672 60.76000213623047 -19.999999999999993
v -12.145000457763672 72.87000274658203 -19.999999999999993
v 0.034999847412109375 72.87000274658203 -19.99999999999999
v -24.255001068115234 0 -19.999999999999996
v -24.255001068115234 12.110000610351562 -19.999999999999996
v 0.034999847412109375 12.110000610351562 -19.99999999999999
v 24.324996948242188 12.110000610351562 -19.999999999999986
v 48.6150016784668 12.110000610351562 -19.99999999999998
v -24.255001068115234 0 -19.999999999999996
v 0.034999847412109375 72.87000274658203 -19.99999999999999
v 0.034999847412109375 85.05000305175781 -19.99999999999999
v 24.324996948242188 12.110000610351562 -19.999999999999986
v 0.034999847412109375 60.76000213623047 -19.99999999999999
v -12.145000457763672 60.76000213623047 -19.999999999999993
v 0.034999847412109375 72.87000274658203 -19.99999999999999
v 24.324996948242188 12.110000610351562 -19.999999999999986
v -24.255001068115234 0 -19.999999999999996
v 0.034999847412109375 12.110000610351562 -19.99999999999999
v 0.034999847412109375 60.76000213623047 -19.99999999999999
v 0.034999847412109375 72.87000274658203 -19.99999999999999
v 24.324996948242188 12.110000610351562 -19.999999999999986
v 24.324996948242188 12.110000610351562 -19.999999999999986
v 0.034999847412109375 12.110000610351562 -19.99999999999999
v 0.034999847412109375 60.76000213623047 -19.99999999999999
v -24.25500106811524 0 3.552713678800501e-15
v 48.6150016784668 0 2.1316282072803006e-14
v 48.6150016784668 12.110000610351562 2.1316282072803006e-14
v 24.32499694824218 12.110000610351562 1.4210854715202004e-14
v 24.32499694824218 85.05000305175781 1.4210854715202004e-14
v 0.03499984741210227 85.05000305175781 1.0658141036401503e-14
v 0.03499984741210227 72.87000274658203 1.0658141036401503e-14
v -12.145000457763675 72.87000274658203 7.105427357601002e-15
v -12.145000457763675 60.76000213623047 7.105427357601002e-15
v 0.03499984741210227 12.110000610351562 1.0658141036401503e-14
v -24.25500106811524 12.110000610351562 3.552713678800501e-15
v -24.25500106811524 0 3.552713678800501e-15
v -24.25500106811524 0 3.552713678800501e-15
v 48.6150016784668 12.110000610351562 2.1316282072803006e-14
v 24.32499694824218 12.110000610351562 1.4210854715202004e-14
v 24.32499694824218 12.110000610351562 1.4210854715202004e-14
v 0.03499984741210227 85.05000305175781 1.0658141036401503e-14
v 0.03499984741210227 72.87000274658203 1.0658141036401503e-14
v 0.03499984741210227 72.87000274658203 1.0658141036401503e-14
v -12.145000457763675 60.76000213623047 7.105427357601002e-15
v 0.03499984741210227 60.76000213623047 1.0658141036401503e-14
v 0.03499984741210227 12.110000610351562 1.0658141036401503e-14
v -24.25500106811524 0 3.552713678800501e-15
v 24.32499694824218 12.110000610351562 1.4210854715202004e-14
v 24.32499694824218 12.110000610351562 1.4210854715202004e-14
v 0.03499984741210227 72.87000274658203 1.0658141036401503e-14
v 0.03499984741210227 60.76000213623047 1.0658141036401503e-14
v 0.03499984741210227 60.76000213623047 1.0658141036401503e-14
v 0.03499984741210227 12.110000610351562 1.0658141036401503e-14
v 24.32499694824218 12.110000610351562 1.4210854715202004e-14
v 48.6150016784668 0 -19.99999999999998
v 48.6150016784668 12.110000610351562 -19.99999999999998
v 48.6150016784668 0 2.1316282072803006e-14
v 48.6150016784668 12.110000610351562 -19.99999999999998
v 48.6150016784668 12.110000610351562 2.1316282072803006e-14
v 48.6150016784668 0 2.1316282072803006e-14
v 48.6150016784668 12.110000610351562 -19.99999999999998
v 24.324996948242188 12.110000610351562 -19.999999999999986
v 48.6150016784668 12.110000610351562 2.1316282072803006e-14
v 24.324996948242188 12.110000610351562 -19.999999999999986
v 24.32499694824218 12.110000610351562 1.4210854715202004e-14
v 48.6150016784668 12.110000610351562 2.1316282072803006e-14
v 24.324996948242188 12.110000610351562 -19.999999999999986
v 24.324996948242188 85.05000305175781 -19.999999999999986
v 24.32499694824218 12.110000610351562 1.4210854715202004e-14
v 24.324996948242188 85.05000305175781 -19.999999999999986
v 24.32499694824218 85.05000305175781 1.4210854715202004e-14
v 24.32499694824218 12.110000610351562 1.4210854715202004e-14
v 24.324996948242188 85.05000305175781 -19.999999999999986
v 0.034999847412109375 85.05000305175781 -19.99999999999999
v 24.32499694824218 85.05000305175781 1.4210854715202004e-14
v 0.034999847412109375 85.05000305175781 -19.99999999999999
v 0.03499984741210227 85.05000305175781 1.0658141036401503e-14
v 24.32499694824218 85.05000305175781 1.4210854715202004e-14
v 0.034999847412109375 85.05000305175781 -19.99999999999999
v 0.034999847412109375 72.87000274658203 -19.99999999999999
v 0.03499984741210227 85.05000305175781 1.0658141036401503e-14
v 0.034999847412109375 72.87000274658203 -19.99999999999999
v 0.03499984741210227 72.87000274658203 1.0658141036401503e-14
v 0.03499984741210227 85.05000305175781 1.0658141036401503e-14
v 0.034999847412109375 72.87000274658203 -19.99999999999999
v -12.145000457763672 72.87000274658203 -19.999999999999993
v 0.03499984741210227 72.87000274658203 1.0658141036401503e-14
v -12.145000457763672 72.87000274658203 -19.999999999999993
v -12.145000457763675 72.87000274658203 7.105427357601002e-15
v 0.03499984741210227 72.87000274658203 1.0658141036401503e-14
v -12.145000457763672 72.87000274658203 -19.999999999999993
v -12.145000457763672 60.76000213623047 -19.999999999999993
v -12.145000457763675 72.87000274658203 7.105427357601002e-15
v -12.145000457763672 60.76000213623047 -19.999999999999993
v -12.145000457763675 60.76000213623047 7.105427357601002e-15
v -12.145000457763675 72.87000274658203 7.105427357601002e-15
v -12.145000457763672 60.76000213623047 -19.999999999999993
v 0.034999847412109375 60.76000213623047 -19.99999999999999
v -12.145000457763675 60.76000213623047 7.105427357601002e-15
v 0.034999847412109375 60.76000213623047 -19.99999999999999
v 0.03499984741210227 60.76000213623047 1.0658141036401503e-14
v -12.145000457763675 60.76000213623047 7.105427357601002e-15
v 0.034999847412109375 60.76000213623047 -19.99999999999999
v 0.034999847412109375 12.110000610351562 -19.99999999999999
v 0.03499984741210227 60.76000213623047 1.0658141036401503e-14
v 0.034999847412109375 12.110000610351562 -19.99999999999999
v 0.03499984741210227 12.110000610351562 1.0658141036401503e-14
v 0.03499984741210227 60.76000213623047 1.0658141036401503e-14
v 0.034999847412109375 12.110000610351562 -19.99999999999999
v -24.255001068115234 12.110000610351562 -19.999999999999996
v 0.03499984741210227 12.110000610351562 1.0658141036401503e-14
v -24.255001068115234 12.110000610351562 -19.999999999999996
v -24.25500106811524 12.110000610351562 3.552713678800501e-15
v 0.03499984741210227 12.110000610351562 1.0658141036401503e-14
v -24.255001068115234 12.110000610351562 -19.999999999999996
v -24.255001068115234 0 -19.999999999999996
v -24.25500106811524 12.110000610351562 3.552713678800501e-15
v -24.255001068115234 0 -19.999999999999996
v -24.25500106811524 0 3.552713678800501e-15
v -24.25500106811524 12.110000610351562 3.552713678800501e-15
v -24.255001068115234 0 -19.999999999999996
v 48.6150016784668 0 -19.99999999999998
v -24.25500106811524 0 3.552713678800501e-15
v 48.6150016784668 0 -19.99999999999998
v 48.6150016784668 0 2.1316282072803006e-14
v -24.25500106811524 0 3.552713678800501e-15
vt 85.05000305175781 24.290000915527344
vt 85.05000305175781 12.180000305175781
vt 12.180000305175781 12.180000305175781
vt 36.470001220703125 97.2300033569336
vt 60.7599983215332 97.2300033569336
vt 60.7599983215332 24.290000915527344
vt 24.290000915527344 72.94000244140625
vt 24.290000915527344 85.05000305175781
vt 36.470001220703125 85.05000305175781
vt 12.180000305175781 12.180000305175781
vt 12.180000305175781 24.290000915527344
vt 36.470001220703125 24.290000915527344
vt 60.7599983215332 24.290000915527344
vt 85.05000305175781 24.290000915527344
vt 12.180000305175781 12.180000305175781
vt 36.470001220703125 85.05000305175781
vt 36.470001220703125 97.2300033569336
vt 60.7599983215332 24.290000915527344
vt 36.470001220703125 72.94000244140625
vt 24.290000915527344 72.94000244140625
vt 36.470001220703125 85.05000305175781
vt 60.7599983215332 24.290000915527344
vt 12.180000305175781 12.180000305175781
vt 36.470001220703125 24.290000915527344
vt 36.470001220703125 72.94000244140625
vt 36.470001220703125 85.05000305175781
vt 60.7599983215332 24.290000915527344
vt 60.7599983215332 24.290000915527344
vt 36.470001220703125 24.290000915527344
vt 36.470001220703125 72.94000244140625
vt 12.180000305175781 12.180000305175781
vt 85.05000305175781 12.180000305175781
vt 85.05000305175781 24.290000915527344
vt 60.7599983215332 24.290000915527344
vt 60.7599983215332 97.2300033569336
vt 36.470001220703125 97.2300033569336
vt 36.470001220703125 85.05000305175781
vt 24.290000915527344 85.05000305175781
vt 24.290000915527344 72.94000244140625
vt 36.470001220703125 24.290000915527344
vt 12.180000305175781 24.290000915527344
vt 12.180000305175781 12.180000305175781
vt 12.180000305175781 12.180000305175781
vt 85.05000305175781 24.290000915527344
vt 60.7599983215332 24.290000915527344
vt 60.7599983215332 24.290000915527344
vt 36.470001220703125 97.2300033569336
vt 36.470001220703125 85.05000305175781
vt 36.470001220703125 85.05000305175781
vt 24.290000915527344 72.94000244140625
vt 36.470001220703125 72.94000244140625
vt 36.470001220703125 24.290000915527344
vt 12.180000305175781 12.180000305175781
vt 60.7599983215332 24.290000915527344
vt 60.7599983215332 24.290000915527344
vt 36.470001220703125 85.05000305175781
vt 36.470001220703125 72.94000244140625
vt 36.470001220703125 72.94000244140625
vt 36.470001220703125 24.290000915527344
vt 60.7599983215332 24.290000915527344
vt 12.180000305175781 1
vt 24.290000915527344 1
vt 12.180000305175781 -19
vt 24.290000915527344 1
vt 24.290000915527344 -19
vt 12.180000305175781 -19
vt 85.05000305175781 1
vt 60.7599983215332 1
vt 85.05000305175781 -19
vt 60.7599983215332 1
vt 60.7599983215332 -19
vt 85.05000305175781 -19
vt 24.290000915527344 1
vt 97.2300033569336 1
vt 24.290000915527344 -19
vt 97.2300033569336 1
vt 97.2300033569336 -19
vt 24.290000915527344 -19
vt 60.7599983215332 1
vt 36.470001220703125 1
vt 60.7599983215332 -19
vt 36.470001220703125 1
vt 36.470001220703125 -19
vt 60.7599983215332 -19
vt 97.2300033569336 1
vt 85.05000305175781 1
vt 97.2300033569336 -19
vt 85.05000305175781 1
vt 85.05000305175781 -19
vt 97.2300033569336 -19
vt 36.470001220703125 1
vt 24.290000915527344 1
vt 36.470001220703125 -19
vt 24.290000915527344 1
vt 24.290000915527344 -19
vt 36.470001220703125 -19
vt 85.05000305175781 1
vt 72.94000244140625 1
vt 85.05000305175781 -19
vt 72.94000244140625 1
vt 72.94000244140625 -19
vt 85.05000305175781 -19
vt 24.290000915527344 1
vt 36.470001220703125 1
vt 24.290000915527344 -19
vt 36.470001220703125 1
vt 36.470001220703125 -19
vt 24.290000915527344 -19
vt 72.94000244140625 1
vt 24.290000915527344 1
vt 72.94000244140625 -19
vt 24.290000915527344 1
vt 24.290000915527344 -19
vt 72.94000244140625 -19
vt 36.470001220703125 1
vt 12.180000305175781 1
vt 36.470001220703125 -19
vt 12.180000305175781 1
vt 12.180000305175781 -19
vt 36.470001220703125 -19
vt 24.290000915527344 1
vt 12.180000305175781 1
vt 24.290000915527344 -19
vt 12.180000305175781 1
vt 12.180000305175781 -19
vt 24.290000915527344 -19
vt 12.180000305175781 1
vt 85.05000305175781 1
vt 12.180000305175781 -19
vt 85.05000305175781 1
vt 85.05000305175781 -19
vt 12.180000305175781 -19
vn 0.355652838945389 0.3566807210445404 -0.8638807535171508
vn 0.07927807420492179 -0.954086422920227 -0.2888496518135071
vn -0.20704692602157573 -0.622935950756073 -0.7543754577636719
vn -0.10603164881467797 0.42290785908699036 -0.8999478816986084
vn 0.8462196588516236 0.14090125262737274 -0.5138669013977049
vn 0.3250353336334231 0.2164822667837143 -0.9205908179283141
vn -0.7847592830657958 -0.3946477472782135 -0.47791841626167314
vn -0.4296455085277557 0.8642579913139343 -0.2616541087627412
vn -0.46882224082946755 0.2344111204147339 -0.8516203165054322
vn -0.20704692602157573 -0.622935950756073 -0.7543754577636719
vn -0.23207147419452662 0.9309688210487366 -0.281850814819336
vn -0.7274646162986754 0.18160447478294373 -0.6616759300231936
vn 0.3250353336334231 0.2164822667837143 -0.9205908179283141
vn 0.355652838945389 0.3566807210445404 -0.8638807535171508
vn -0.20704692602157573 -0.622935950756073 -0.7543754577636719
vn -0.46882224082946755 0.2344111204147339 -0.8516203165054322
vn -0.10603164881467797 0.42290785908699036 -0.8999478816986084
vn 0.3250353336334231 0.2164822667837143 -0.9205908179283141
vn -0.4978697896003721 -0.24929307401180267 -0.8306495547294618
vn -0.7847592830657958 -0.3946477472782135 -0.47791841626167314
vn -0.46882224082946755 0.2344111204147339 -0.8516203165054322
vn 0.3250353336334231 0.2164822667837143 -0.9205908179283141
vn -0.20704692602157573 -0.622935950756073 -0.7543754577636719
vn -0.7274646162986754 0.18160447478294373 -0.6616759300231936
vn -0.4978697896003721 -0.24929307401180267 -0.8306495547294618
vn -0.46882224082946755 0.2344111204147339 -0.8516203165054322
vn 0.3250353336334231 0.2164822667837143 -0.9205908179283141
vn 0.3250353336334231 0.2164822667837143 -0.9205908179283141
vn -0.7274646162986754 0.18160447478294373 -0.6616759300231936
vn -0.4978697896003721 -0.24929307401180267 -0.8306495547294618
vn -0.0708998888731004 -0.8532575964927673 0.5166475176811218
vn 0.27347657084465016 -0.8228009343147278 0.4982059597969056
vn 0.15676218271255474 0.6288610100746155 0.7615506649017334
vn 0.5741841197013853 0.0956055149435997 0.8131249547004701
vn 0.5853458642959593 0.3898560702800751 0.7109025716781617
vn -0.22358530759811424 0.22294281423091888 0.9488446116447449
vn -0.2344111204147341 0.4688222408294678 0.851620316505432
vn -0.8620629310607911 0.4335229992866516 0.2624981701374052
vn -0.3913332223892213 -0.7871905565261841 0.4766438603401183
vn -0.43411210179328935 0.4334874749183655 0.7897058129310607
vn -0.64894837141037 0.6508239507675171 0.39407390356063826
vn -0.0708998888731004 -0.8532575964927673 0.5166475176811218
vn -0.0708998888731004 -0.8532575964927673 0.5166475176811218
vn 0.15676218271255474 0.6288610100746155 0.7615506649017334
vn 0.5741841197013853 0.0956055149435997 0.8131249547004701
vn 0.5741841197013853 0.0956055149435997 0.8131249547004701
vn -0.22358530759811424 0.22294281423091888 0.9488446116447449
vn -0.2344111204147341 0.4688222408294678 0.851620316505432
vn -0.2344111204147341 0.4688222408294678 0.851620316505432
vn -0.3913332223892213 -0.7871905565261841 0.4766438603401183
vn -0.7643692493438722 -0.09568363428115845 0.6376395821571348
vn -0.43411210179328935 0.4334874749183655 0.7897058129310607
vn -0.0708998888731004 -0.8532575964927673 0.5166475176811218
vn 0.5741841197013853 0.0956055149435997 0.8131249547004701
vn 0.5741841197013853 0.0956055149435997 0.8131249547004701
vn -0.2344111204147341 0.4688222408294678 0.851620316505432
vn -0.7643692493438722 -0.09568363428115845 0.6376395821571348
vn -0.7643692493438722 -0.09568363428115845 0.6376395821571348
vn -0.43411210179328935 0.4334874749183655 0.7897058129310607
vn 0.5741841197013853 0.0956055149435997 0.8131249547004701
vn 0.07927807420492179 -0.954086422920227 -0.2888496518135071
vn 0.355652838945389 0.3566807210445404 -0.8638807535171508
vn 0.27347657084465016 -0.8228009343147278 0.4982059597969056
vn 0.355652838945389 0.3566807210445404 -0.8638807535171508
vn 0.15676218271255474 0.6288610100746155 0.7615506649017334
vn 0.27347657084465016 -0.8228009343147278 0.4982059597969056
vn 0.355652838945389 0.3566807210445404 -0.8638807535171508
vn 0.3250353336334231 0.2164822667837143 -0.9205908179283141
vn 0.15676218271255474 0.6288610100746155 0.7615506649017334
vn 0.3250353336334231 0.2164822667837143 -0.9205908179283141
vn 0.5741841197013853 0.0956055149435997 0.8131249547004701
vn 0.15676218271255474 0.6288610100746155 0.7615506649017334
vn 0.3250353336334231 0.2164822667837143 -0.9205908179283141
vn 0.8462196588516236 0.14090125262737274 -0.5138669013977049
vn 0.5741841197013853 0.0956055149435997 0.8131249547004701
vn 0.8462196588516236 0.14090125262737274 -0.5138669013977049
vn 0.5853458642959593 0.3898560702800751 0.7109025716781617
vn 0.5741841197013853 0.0956055149435997 0.8131249547004701
vn 0.8462196588516236 0.14090125262737274 -0.5138669013977049
vn -0.10603164881467797 0.42290785908699036 -0.8999478816986084
vn 0.5853458642959593 0.3898560702800751 0.7109025716781617
vn -0.10603164881467797 0.42290785908699036 -0.8999478816986084
vn -0.22358530759811424 0.22294281423091888 0.9488446116447449
vn 0.5853458642959593 0.3898560702800751 0.7109025716781617
vn -0.10603164881467797 0.42290785908699036 -0.8999478816986084
vn -0.46882224082946755 0.2344111204147339 -0.8516203165054322
vn -0.22358530759811424 0.22294281423091888 0.9488446116447449
vn -0.46882224082946755 0.2344111204147339 -0.8516203165054322
vn -0.2344111204147341 0.4688222408294678 0.851620316505432
vn -0.22358530759811424 0.22294281423091888 0.9488446116447449
vn -0.46882224082946755 0.2344111204147339 -0.8516203165054322
vn -0.4296455085277557 0.8642579913139343 -0.2616541087627412
vn -0.2344111204147341 0.4688222408294678 0.851620316505432
vn -0.4296455085277557 0.8642579913139343 -0.2616541087627412
vn -0.8620629310607911 0.4335229992866516 0.2624981701374052
vn -0.2344111204147341 0.4688222408294678 0.851620316505432
vn -0.4296455085277557 0.8642579913139343 -0.2616541087627412
vn -0.7847592830657958 -0.3946477472782135 -0.47791841626167314
vn -0.8620629310607911 0.4335229992866516 0.2624981701374052
vn -0.7847592830657958 -0.3946477472782135 -0.47791841626167314
vn -0.3913332223892213 -0.7871905565261841 0.4766438603401183
vn -0.8620629310607911 0.4335229992866516 0.2624981701374052
vn -0.7847592830657958 -0.3946477472782135 -0.47791841626167314
vn -0.4978697896003721 -0.24929307401180267 -0.8306495547294618
vn -0.3913332223892213 -0.7871905565261841 0.4766438603401183
vn -0.4978697896003721 -0.24929307401180267 -0.8306495547294618
vn -0.7643692493438722 -0.09568363428115845 0.6376395821571348
vn -0.3913332223892213 -0.7871905565261841 0.4766438603401183
vn -0.4978697896003721 -0.24929307401180267 -0.8306495547294618
vn -0.7274646162986754 0.18160447478294373 -0.6616759300231936
vn -0.7643692493438722 -0.09568363428115845 0.6376395821571348
vn -0.7274646162986754 0.18160447478294373 -0.6616759300231936
vn -0.43411210179328935 0.4334874749183655 0.7897058129310607
vn -0.7643692493438722 -0.09568363428115845 0.6376395821571348
vn -0.7274646162986754 0.18160447478294373 -0.6616759300231936
vn -0.23207147419452662 0.9309688210487366 -0.281850814819336
vn -0.43411210179328935 0.4334874749183655 0.7897058129310607
vn -0.23207147419452662 0.9309688210487366 -0.281850814819336
vn -0.64894837141037 0.6508239507675171 0.39407390356063826
vn -0.43411210179328935 0.4334874749183655 0.7897058129310607
vn -0.23207147419452662 0.9309688210487366 -0.281850814819336
vn -0.20704692602157573 -0.622935950756073 -0.7543754577636719
vn -0.64894837141037 0.6508239507675171 0.39407390356063826
vn -0.20704692602157573 -0.622935950756073 -0.7543754577636719
vn -0.0708998888731004 -0.8532575964927673 0.5166475176811218
vn -0.64894837141037 0.6508239507675171 0.39407390356063826
vn -0.20704692602157573 -0.622935950756073 -0.7543754577636719
vn 0.07927807420492179 -0.954086422920227 -0.2888496518135071
vn -0.0708998888731004 -0.8532575964927673 0.5166475176811218
vn 0.07927807420492179 -0.954086422920227 -0.2888496518135071
vn 0.27347657084465016 -0.8228009343147278 0.4982059597969056
vn -0.0708998888731004 -0.8532575964927673 0.5166475176811218
f 1/1/1 2/2/2 3/3/3
f 4/4/4 5/5/5 6/6/6
f 7/7/7 8/8/8 9/9/9
f 10/10/10 11/11/11 12/12/12
f 13/13/13 14/14/14 15/15/15
f 16/16/16 17/17/17 18/18/18
f 19/19/19 20/20/20 21/21/21
f 22/22/22 23/23/23 24/24/24
f 25/25/25 26/26/26 27/27/27
f 28/28/28 29/29/29 30/30/30
f 31/31/31 32/32/32 33/33/33
f 34/34/34 35/35/35 36/36/36
f 37/37/37 38/38/38 39/39/39
f 40/40/40 41/41/41 42/42/42
f 43/43/43 44/44/44 45/45/45
f 46/46/46 47/47/47 48/48/48
f 49/49/49 50/50/50 51/51/51
f 52/52/52 53/53/53 54/54/54
f 55/55/55 56/56/56 57/57/57
f 58/58/58 59/59/59 60/60/60
f 61/61/61 62/62/62 63/63/63
f 64/64/64 65/65/65 66/66/66
f 67/67/67 68/68/68 69/69/69
f 70/70/70 71/71/71 72/72/72
f 73/73/73 74/74/74 75/75/75
f 76/76/76 77/77/77 78/78/78
f 79/79/79 80/80/80 81/81/81
f 82/82/82 83/83/83 84/84/84
f 85/85/85 86/86/86 87/87/87
f 88/88/88 89/89/89 90/90/90
f 91/91/91 92/92/92 93/93/93
f 94/94/94 95/95/95 96/96/96
f 97/97/97 98/98/98 99/99/99
f 100/100/100 101/101/101 102/102/102
f 103/103/103 104/104/104 105/105/105
f 106/106/106 107/107/107 108/108/108
f 109/109/109 110/110/110 111/111/111
f 112/112/112 113/113/113 114/114/114
f 115/115/115 116/116/116 117/117/117
f 118/118/118 119/119/119 120/120/120
f 121/121/121 122/122/122 123/123/123
f 124/124/124 125/125/125 126/126/126
f 127/127/127 128/128/128 129/129/129
f 130/130/130 131/131/131 132/132/132
